<svg width="24" height="24" viewBox="0 0 24 24" fill="none" xmlns="http://www.w3.org/2000/svg">
<path d="M21 13C21 18 17 22 12 22C7 22 3 18 3 13C3 8 7 4 12 4H13" stroke="black" stroke-width="1.5" stroke-miterlimit="10" stroke-linecap="round" stroke-linejoin="round"/>
<path d="M13 4L11 2.75V5.25L13 4Z" stroke="black" stroke-width="1.5"/>
<path d="M8.99994 16V9L7.19995 10" stroke="black" stroke-width="1.5" stroke-miterlimit="10" stroke-linecap="round" stroke-linejoin="round"/>
<path d="M7.5 16H10.5" stroke="black" stroke-width="1.5" stroke-miterlimit="10" stroke-linecap="round" stroke-linejoin="round"/>
<path d="M15.1 16H14.9C13.8 16 13 15.1 13 14.1V10.9C13 9.8 13.9 9 14.9 9H15.1C16.2 9 17 9.9 17 10.9V14.1C17 15.1 16.1 16 15.1 16Z" stroke="black" stroke-width="1.5" stroke-miterlimit="10" stroke-linecap="round" stroke-linejoin="round"/>
</svg>
