<svg width="24" height="24" viewBox="0 0 24 24" fill="none" xmlns="http://www.w3.org/2000/svg">
<path d="M9 19H21" stroke="black" stroke-width="1.5" stroke-miterlimit="10" stroke-linecap="round" stroke-linejoin="round"/>
<path d="M9 12H21" stroke="black" stroke-width="1.5" stroke-miterlimit="10" stroke-linecap="round" stroke-linejoin="round"/>
<path d="M2.88 21.19C3.42 21.32 4.03 21.24 4.49 20.94C4.92 20.67 5.17 20.19 5.03 19.7C4.9 19.24 4.33 19.03 3.87 18.99C4.36 19.02 4.86 18.78 5.05 18.34C5.27 17.85 4.97 17.3 4.52 17.03C4.13 16.79 3.65 16.72 3.2 16.75" stroke="black" stroke-width="1.5" stroke-miterlimit="10" stroke-linecap="round" stroke-linejoin="round"/>
<path d="M2.5 10.88C2.94 10.13 3.78 9.81999 4.39 10.1C4.85 10.32 5.27 10.91 5.15 11.51C5.08 11.85 4.85 12.07 4.68 12.22C4.17 12.66 3.45 13.28 2.5 14H5.5" stroke="black" stroke-width="1.5" stroke-miterlimit="10" stroke-linecap="round" stroke-linejoin="round"/>
<path d="M9 5H21" stroke="black" stroke-width="1.5" stroke-miterlimit="10" stroke-linecap="round" stroke-linejoin="round"/>
<path d="M4 7V3" stroke="black" stroke-width="1.5" stroke-miterlimit="10" stroke-linecap="round" stroke-linejoin="round"/>
<path d="M3 7H5" stroke="black" stroke-width="1.5" stroke-miterlimit="10" stroke-linecap="round" stroke-linejoin="round"/>
<path d="M3 3.5L4 3" stroke="black" stroke-width="1.5" stroke-miterlimit="10" stroke-linecap="round" stroke-linejoin="round"/>
</svg>
